<mxfile host="app.diagrams.net" modified="2023-11-28T12:28:29.886Z" agent="Mozilla/5.0 (Windows NT 10.0; Win64; x64) AppleWebKit/537.36 (KHTML, like Gecko) Chrome/119.0.0.0 Safari/537.36 Edg/119.0.0.0" etag="6h1vmGgfN3-KeVFW0bc8" version="22.1.3" type="device">
  <diagram name="Page-1" id="m4TTrIFnQKT-xl1R4at4">
    <mxGraphModel dx="1186" dy="1118" grid="1" gridSize="10" guides="1" tooltips="1" connect="1" arrows="1" fold="1" page="1" pageScale="1" pageWidth="1654" pageHeight="1169" math="0" shadow="0">
      <root>
        <mxCell id="0" />
        <mxCell id="1" parent="0" />
        <mxCell id="PsU__HaOT6JvjWvx0s9m-24" style="edgeStyle=orthogonalEdgeStyle;rounded=0;orthogonalLoop=1;jettySize=auto;html=1;exitX=0.5;exitY=1;exitDx=0;exitDy=0;entryX=0.5;entryY=0;entryDx=0;entryDy=0;" parent="1" source="PsU__HaOT6JvjWvx0s9m-3" target="PsU__HaOT6JvjWvx0s9m-8" edge="1">
          <mxGeometry relative="1" as="geometry" />
        </mxCell>
        <mxCell id="PsU__HaOT6JvjWvx0s9m-3" value="Get&amp;nbsp; valid deployments" style="rounded=1;whiteSpace=wrap;html=1;absoluteArcSize=1;arcSize=14;strokeWidth=2;" parent="1" vertex="1">
          <mxGeometry x="140" y="181" width="170" height="60" as="geometry" />
        </mxCell>
        <mxCell id="PsU__HaOT6JvjWvx0s9m-28" value="" style="edgeStyle=orthogonalEdgeStyle;rounded=0;orthogonalLoop=1;jettySize=auto;html=1;" parent="1" source="PsU__HaOT6JvjWvx0s9m-8" target="PsU__HaOT6JvjWvx0s9m-27" edge="1">
          <mxGeometry relative="1" as="geometry" />
        </mxCell>
        <mxCell id="PsU__HaOT6JvjWvx0s9m-8" value="Process deployments data" style="whiteSpace=wrap;html=1;rounded=1;arcSize=14;strokeWidth=2;" parent="1" vertex="1">
          <mxGeometry x="165" y="301" width="120" height="60" as="geometry" />
        </mxCell>
        <mxCell id="PsU__HaOT6JvjWvx0s9m-18" value="- Environment&lt;br&gt;- Teams/Users" style="text;html=1;align=left;verticalAlign=middle;resizable=0;points=[];autosize=1;strokeColor=none;fillColor=none;" parent="1" vertex="1">
          <mxGeometry x="50" y="191" width="100" height="40" as="geometry" />
        </mxCell>
        <mxCell id="PsU__HaOT6JvjWvx0s9m-30" value="" style="edgeStyle=orthogonalEdgeStyle;rounded=0;orthogonalLoop=1;jettySize=auto;html=1;" parent="1" source="PsU__HaOT6JvjWvx0s9m-27" target="PsU__HaOT6JvjWvx0s9m-29" edge="1">
          <mxGeometry relative="1" as="geometry" />
        </mxCell>
        <mxCell id="PsU__HaOT6JvjWvx0s9m-27" value="Create information" style="whiteSpace=wrap;html=1;rounded=1;arcSize=14;strokeWidth=2;" parent="1" vertex="1">
          <mxGeometry x="165" y="441" width="120" height="60" as="geometry" />
        </mxCell>
        <mxCell id="PsU__HaOT6JvjWvx0s9m-29" value="Publish Information" style="whiteSpace=wrap;html=1;rounded=1;arcSize=14;strokeWidth=2;" parent="1" vertex="1">
          <mxGeometry x="165" y="581" width="120" height="60" as="geometry" />
        </mxCell>
        <mxCell id="PsU__HaOT6JvjWvx0s9m-31" value="" style="line;strokeWidth=2;direction=south;html=1;" parent="1" vertex="1">
          <mxGeometry x="350" y="40" width="10" height="890" as="geometry" />
        </mxCell>
        <mxCell id="PsU__HaOT6JvjWvx0s9m-35" value="" style="edgeStyle=orthogonalEdgeStyle;rounded=0;orthogonalLoop=1;jettySize=auto;html=1;" parent="1" source="PsU__HaOT6JvjWvx0s9m-33" target="PsU__HaOT6JvjWvx0s9m-34" edge="1">
          <mxGeometry relative="1" as="geometry" />
        </mxCell>
        <mxCell id="PsU__HaOT6JvjWvx0s9m-33" value="Get all the deployments" style="rounded=1;whiteSpace=wrap;html=1;absoluteArcSize=1;arcSize=14;strokeWidth=2;" parent="1" vertex="1">
          <mxGeometry x="750" y="70" width="170" height="60" as="geometry" />
        </mxCell>
        <mxCell id="PsU__HaOT6JvjWvx0s9m-37" value="" style="edgeStyle=orthogonalEdgeStyle;rounded=0;orthogonalLoop=1;jettySize=auto;html=1;" parent="1" source="PsU__HaOT6JvjWvx0s9m-34" target="PsU__HaOT6JvjWvx0s9m-36" edge="1">
          <mxGeometry relative="1" as="geometry" />
        </mxCell>
        <mxCell id="PsU__HaOT6JvjWvx0s9m-34" value="Filter data" style="whiteSpace=wrap;html=1;rounded=1;arcSize=14;strokeWidth=2;" parent="1" vertex="1">
          <mxGeometry x="775" y="220" width="120" height="60" as="geometry" />
        </mxCell>
        <mxCell id="PsU__HaOT6JvjWvx0s9m-36" value="Get the team info" style="whiteSpace=wrap;html=1;rounded=1;arcSize=14;strokeWidth=2;" parent="1" vertex="1">
          <mxGeometry x="775" y="350" width="120" height="60" as="geometry" />
        </mxCell>
        <mxCell id="PsU__HaOT6JvjWvx0s9m-38" value="" style="line;strokeWidth=2;direction=south;html=1;" parent="1" vertex="1">
          <mxGeometry x="950" y="50" width="10" height="890" as="geometry" />
        </mxCell>
        <mxCell id="PsU__HaOT6JvjWvx0s9m-41" value="" style="edgeStyle=orthogonalEdgeStyle;rounded=0;orthogonalLoop=1;jettySize=auto;html=1;" parent="1" source="PsU__HaOT6JvjWvx0s9m-39" target="PsU__HaOT6JvjWvx0s9m-40" edge="1">
          <mxGeometry relative="1" as="geometry" />
        </mxCell>
        <mxCell id="PsU__HaOT6JvjWvx0s9m-39" value="Map the deploymets to team" style="rounded=1;whiteSpace=wrap;html=1;absoluteArcSize=1;arcSize=14;strokeWidth=2;" parent="1" vertex="1">
          <mxGeometry x="990" y="70" width="170" height="60" as="geometry" />
        </mxCell>
        <mxCell id="PsU__HaOT6JvjWvx0s9m-44" value="" style="edgeStyle=orthogonalEdgeStyle;rounded=0;orthogonalLoop=1;jettySize=auto;html=1;" parent="1" source="PsU__HaOT6JvjWvx0s9m-40" target="PsU__HaOT6JvjWvx0s9m-54" edge="1">
          <mxGeometry relative="1" as="geometry">
            <mxPoint x="1055" y="360" as="targetPoint" />
            <Array as="points">
              <mxPoint x="1075" y="330" />
              <mxPoint x="1056" y="330" />
            </Array>
          </mxGeometry>
        </mxCell>
        <mxCell id="PsU__HaOT6JvjWvx0s9m-45" value="Yes" style="edgeLabel;html=1;align=center;verticalAlign=middle;resizable=0;points=[];" parent="PsU__HaOT6JvjWvx0s9m-44" vertex="1" connectable="0">
          <mxGeometry x="-0.4363" y="-2" relative="1" as="geometry">
            <mxPoint as="offset" />
          </mxGeometry>
        </mxCell>
        <mxCell id="PsU__HaOT6JvjWvx0s9m-47" value="" style="edgeStyle=orthogonalEdgeStyle;rounded=0;orthogonalLoop=1;jettySize=auto;html=1;" parent="1" source="PsU__HaOT6JvjWvx0s9m-40" target="PsU__HaOT6JvjWvx0s9m-46" edge="1">
          <mxGeometry relative="1" as="geometry" />
        </mxCell>
        <mxCell id="PsU__HaOT6JvjWvx0s9m-48" value="No" style="edgeLabel;html=1;align=center;verticalAlign=middle;resizable=0;points=[];" parent="PsU__HaOT6JvjWvx0s9m-47" vertex="1" connectable="0">
          <mxGeometry x="-0.433" y="3" relative="1" as="geometry">
            <mxPoint as="offset" />
          </mxGeometry>
        </mxCell>
        <mxCell id="PsU__HaOT6JvjWvx0s9m-40" value="User belongs to team?" style="rhombus;whiteSpace=wrap;html=1;rounded=1;arcSize=14;strokeWidth=2;" parent="1" vertex="1">
          <mxGeometry x="1035" y="200" width="80" height="80" as="geometry" />
        </mxCell>
        <mxCell id="PsU__HaOT6JvjWvx0s9m-53" value="" style="edgeStyle=orthogonalEdgeStyle;rounded=0;orthogonalLoop=1;jettySize=auto;html=1;" parent="1" source="PsU__HaOT6JvjWvx0s9m-46" target="PsU__HaOT6JvjWvx0s9m-52" edge="1">
          <mxGeometry relative="1" as="geometry" />
        </mxCell>
        <mxCell id="PsU__HaOT6JvjWvx0s9m-46" value="Get the user" style="whiteSpace=wrap;html=1;rounded=1;arcSize=14;strokeWidth=2;" parent="1" vertex="1">
          <mxGeometry x="1175" y="210" width="120" height="60" as="geometry" />
        </mxCell>
        <mxCell id="PsU__HaOT6JvjWvx0s9m-52" value="Create warning" style="whiteSpace=wrap;html=1;rounded=1;arcSize=14;strokeWidth=2;" parent="1" vertex="1">
          <mxGeometry x="1340" y="210" width="120" height="60" as="geometry" />
        </mxCell>
        <mxCell id="PsU__HaOT6JvjWvx0s9m-57" value="" style="edgeStyle=orthogonalEdgeStyle;rounded=0;orthogonalLoop=1;jettySize=auto;html=1;" parent="1" source="PsU__HaOT6JvjWvx0s9m-54" target="PsU__HaOT6JvjWvx0s9m-56" edge="1">
          <mxGeometry relative="1" as="geometry" />
        </mxCell>
        <mxCell id="PsU__HaOT6JvjWvx0s9m-58" value="No" style="edgeLabel;html=1;align=center;verticalAlign=middle;resizable=0;points=[];" parent="PsU__HaOT6JvjWvx0s9m-57" vertex="1" connectable="0">
          <mxGeometry x="-0.1919" y="-1" relative="1" as="geometry">
            <mxPoint as="offset" />
          </mxGeometry>
        </mxCell>
        <mxCell id="PsU__HaOT6JvjWvx0s9m-64" value="" style="edgeStyle=orthogonalEdgeStyle;rounded=0;orthogonalLoop=1;jettySize=auto;html=1;" parent="1" source="PsU__HaOT6JvjWvx0s9m-54" target="PsU__HaOT6JvjWvx0s9m-63" edge="1">
          <mxGeometry relative="1" as="geometry" />
        </mxCell>
        <mxCell id="PsU__HaOT6JvjWvx0s9m-65" value="No" style="edgeLabel;html=1;align=center;verticalAlign=middle;resizable=0;points=[];" parent="PsU__HaOT6JvjWvx0s9m-64" vertex="1" connectable="0">
          <mxGeometry x="-0.433" y="3" relative="1" as="geometry">
            <mxPoint as="offset" />
          </mxGeometry>
        </mxCell>
        <mxCell id="PsU__HaOT6JvjWvx0s9m-70" value="" style="edgeStyle=orthogonalEdgeStyle;rounded=0;orthogonalLoop=1;jettySize=auto;html=1;" parent="1" source="PsU__HaOT6JvjWvx0s9m-54" target="PsU__HaOT6JvjWvx0s9m-63" edge="1">
          <mxGeometry relative="1" as="geometry" />
        </mxCell>
        <mxCell id="PsU__HaOT6JvjWvx0s9m-72" value="Yes" style="edgeLabel;html=1;align=center;verticalAlign=middle;resizable=0;points=[];" parent="PsU__HaOT6JvjWvx0s9m-70" vertex="1" connectable="0">
          <mxGeometry x="-0.333" relative="1" as="geometry">
            <mxPoint as="offset" />
          </mxGeometry>
        </mxCell>
        <mxCell id="PsU__HaOT6JvjWvx0s9m-54" value="User belongs to multiple teams?" style="rhombus;whiteSpace=wrap;html=1;rounded=1;arcSize=14;strokeWidth=2;" parent="1" vertex="1">
          <mxGeometry x="1035" y="360" width="80" height="80" as="geometry" />
        </mxCell>
        <mxCell id="PsU__HaOT6JvjWvx0s9m-56" value="Ge the team name" style="whiteSpace=wrap;html=1;rounded=1;arcSize=14;strokeWidth=2;" parent="1" vertex="1">
          <mxGeometry x="1015" y="530" width="120" height="50" as="geometry" />
        </mxCell>
        <mxCell id="PsU__HaOT6JvjWvx0s9m-69" style="edgeStyle=orthogonalEdgeStyle;rounded=0;orthogonalLoop=1;jettySize=auto;html=1;exitX=1;exitY=0.5;exitDx=0;exitDy=0;entryX=0.5;entryY=1;entryDx=0;entryDy=0;" parent="1" source="PsU__HaOT6JvjWvx0s9m-63" target="PsU__HaOT6JvjWvx0s9m-52" edge="1">
          <mxGeometry relative="1" as="geometry" />
        </mxCell>
        <mxCell id="PsU__HaOT6JvjWvx0s9m-63" value="Get the first team" style="whiteSpace=wrap;html=1;rounded=1;arcSize=14;strokeWidth=2;" parent="1" vertex="1">
          <mxGeometry x="1175" y="370" width="120" height="60" as="geometry" />
        </mxCell>
        <mxCell id="PsU__HaOT6JvjWvx0s9m-73" value="" style="verticalLabelPosition=bottom;verticalAlign=top;html=1;shape=mxgraph.flowchart.or;" parent="1" vertex="1">
          <mxGeometry x="1040" y="620" width="70" height="70" as="geometry" />
        </mxCell>
        <mxCell id="PsU__HaOT6JvjWvx0s9m-74" style="edgeStyle=orthogonalEdgeStyle;rounded=0;orthogonalLoop=1;jettySize=auto;html=1;exitX=0.5;exitY=1;exitDx=0;exitDy=0;entryX=0.5;entryY=0;entryDx=0;entryDy=0;entryPerimeter=0;" parent="1" source="PsU__HaOT6JvjWvx0s9m-56" target="PsU__HaOT6JvjWvx0s9m-73" edge="1">
          <mxGeometry relative="1" as="geometry" />
        </mxCell>
        <mxCell id="PsU__HaOT6JvjWvx0s9m-75" style="edgeStyle=orthogonalEdgeStyle;rounded=0;orthogonalLoop=1;jettySize=auto;html=1;exitX=1;exitY=0.5;exitDx=0;exitDy=0;entryX=1;entryY=0.5;entryDx=0;entryDy=0;entryPerimeter=0;" parent="1" source="PsU__HaOT6JvjWvx0s9m-52" target="PsU__HaOT6JvjWvx0s9m-73" edge="1">
          <mxGeometry relative="1" as="geometry" />
        </mxCell>
        <mxCell id="PsU__HaOT6JvjWvx0s9m-76" value="" style="line;strokeWidth=2;direction=south;html=1;" parent="1" vertex="1">
          <mxGeometry x="1510" y="40" width="10" height="890" as="geometry" />
        </mxCell>
        <mxCell id="PsU__HaOT6JvjWvx0s9m-78" value="&lt;div style=&quot;text-align: left;&quot;&gt;&lt;span style=&quot;background-color: initial;&quot;&gt;- Deployment ID&lt;/span&gt;&lt;/div&gt;&lt;div style=&quot;text-align: left;&quot;&gt;&lt;span style=&quot;background-color: initial;&quot;&gt;- Release dates&lt;/span&gt;&lt;/div&gt;&lt;div style=&quot;text-align: left;&quot;&gt;&lt;span style=&quot;background-color: initial;&quot;&gt;- Team name&lt;/span&gt;&lt;/div&gt;&lt;div style=&quot;text-align: left;&quot;&gt;&lt;span style=&quot;background-color: initial;&quot;&gt;- Environment&lt;/span&gt;&lt;/div&gt;" style="text;html=1;strokeColor=none;fillColor=none;align=center;verticalAlign=middle;whiteSpace=wrap;rounded=0;" parent="1" vertex="1">
          <mxGeometry x="45" y="301" width="110" height="20" as="geometry" />
        </mxCell>
        <mxCell id="h0qOqrBnuUHrt970qCSp-3" value="" style="edgeStyle=orthogonalEdgeStyle;rounded=0;orthogonalLoop=1;jettySize=auto;html=1;" parent="1" source="h0qOqrBnuUHrt970qCSp-2" target="PsU__HaOT6JvjWvx0s9m-3" edge="1">
          <mxGeometry relative="1" as="geometry" />
        </mxCell>
        <mxCell id="h0qOqrBnuUHrt970qCSp-2" value="Get all valid projects" style="rounded=1;whiteSpace=wrap;html=1;absoluteArcSize=1;arcSize=14;strokeWidth=2;" parent="1" vertex="1">
          <mxGeometry x="140" y="50" width="170" height="60" as="geometry" />
        </mxCell>
        <mxCell id="h0qOqrBnuUHrt970qCSp-4" value="Get all the projects" style="rounded=1;whiteSpace=wrap;html=1;absoluteArcSize=1;arcSize=14;strokeWidth=2;" parent="1" vertex="1">
          <mxGeometry x="370" y="70" width="170" height="60" as="geometry" />
        </mxCell>
        <mxCell id="hqpWYG__Yn4aEwta1cD7-5" value="" style="edgeStyle=orthogonalEdgeStyle;rounded=0;orthogonalLoop=1;jettySize=auto;html=1;" edge="1" parent="1" target="hqpWYG__Yn4aEwta1cD7-4">
          <mxGeometry relative="1" as="geometry">
            <mxPoint x="1720" y="110" as="sourcePoint" />
          </mxGeometry>
        </mxCell>
        <mxCell id="hqpWYG__Yn4aEwta1cD7-1" value="Filter data" style="whiteSpace=wrap;html=1;rounded=1;arcSize=14;strokeWidth=2;" vertex="1" parent="1">
          <mxGeometry x="1650" y="50" width="120" height="60" as="geometry" />
        </mxCell>
        <mxCell id="hqpWYG__Yn4aEwta1cD7-9" value="" style="edgeStyle=orthogonalEdgeStyle;rounded=0;orthogonalLoop=1;jettySize=auto;html=1;entryX=0;entryY=0.5;entryDx=0;entryDy=0;" edge="1" parent="1" source="hqpWYG__Yn4aEwta1cD7-4" target="hqpWYG__Yn4aEwta1cD7-40">
          <mxGeometry relative="1" as="geometry">
            <mxPoint x="1915" y="211" as="targetPoint" />
          </mxGeometry>
        </mxCell>
        <mxCell id="hqpWYG__Yn4aEwta1cD7-39" value="False" style="edgeLabel;html=1;align=center;verticalAlign=middle;resizable=0;points=[];" vertex="1" connectable="0" parent="hqpWYG__Yn4aEwta1cD7-9">
          <mxGeometry x="0.0545" y="1" relative="1" as="geometry">
            <mxPoint as="offset" />
          </mxGeometry>
        </mxCell>
        <mxCell id="hqpWYG__Yn4aEwta1cD7-4" value="Translate to &lt;br&gt;env" style="rhombus;whiteSpace=wrap;html=1;rounded=1;arcSize=14;strokeWidth=2;" vertex="1" parent="1">
          <mxGeometry x="1670" y="180" width="90" height="80" as="geometry" />
        </mxCell>
        <mxCell id="hqpWYG__Yn4aEwta1cD7-20" value="" style="edgeStyle=orthogonalEdgeStyle;rounded=0;orthogonalLoop=1;jettySize=auto;html=1;exitX=0.5;exitY=1;exitDx=0;exitDy=0;" edge="1" parent="1" source="hqpWYG__Yn4aEwta1cD7-4">
          <mxGeometry relative="1" as="geometry">
            <mxPoint x="1710" y="560" as="sourcePoint" />
            <mxPoint x="1715" y="441" as="targetPoint" />
          </mxGeometry>
        </mxCell>
        <mxCell id="hqpWYG__Yn4aEwta1cD7-21" value="True" style="edgeLabel;html=1;align=center;verticalAlign=middle;resizable=0;points=[];" vertex="1" connectable="0" parent="hqpWYG__Yn4aEwta1cD7-20">
          <mxGeometry x="-0.1667" y="3" relative="1" as="geometry">
            <mxPoint as="offset" />
          </mxGeometry>
        </mxCell>
        <mxCell id="hqpWYG__Yn4aEwta1cD7-42" value="" style="edgeStyle=orthogonalEdgeStyle;rounded=0;orthogonalLoop=1;jettySize=auto;html=1;" edge="1" parent="1" source="hqpWYG__Yn4aEwta1cD7-40" target="hqpWYG__Yn4aEwta1cD7-41">
          <mxGeometry relative="1" as="geometry" />
        </mxCell>
        <mxCell id="hqpWYG__Yn4aEwta1cD7-43" value="False" style="edgeLabel;html=1;align=center;verticalAlign=middle;resizable=0;points=[];" vertex="1" connectable="0" parent="hqpWYG__Yn4aEwta1cD7-42">
          <mxGeometry x="-0.0769" y="4" relative="1" as="geometry">
            <mxPoint as="offset" />
          </mxGeometry>
        </mxCell>
        <mxCell id="hqpWYG__Yn4aEwta1cD7-44" style="edgeStyle=orthogonalEdgeStyle;rounded=0;orthogonalLoop=1;jettySize=auto;html=1;entryX=1;entryY=0.5;entryDx=0;entryDy=0;" edge="1" parent="1" target="hqpWYG__Yn4aEwta1cD7-46">
          <mxGeometry relative="1" as="geometry">
            <mxPoint x="1780" y="480" as="targetPoint" />
            <mxPoint x="1960" y="250" as="sourcePoint" />
            <Array as="points">
              <mxPoint x="1961" y="250" />
              <mxPoint x="1961" y="480" />
            </Array>
          </mxGeometry>
        </mxCell>
        <mxCell id="hqpWYG__Yn4aEwta1cD7-45" value="True" style="edgeLabel;html=1;align=center;verticalAlign=middle;resizable=0;points=[];" vertex="1" connectable="0" parent="hqpWYG__Yn4aEwta1cD7-44">
          <mxGeometry x="-0.1025" y="1" relative="1" as="geometry">
            <mxPoint as="offset" />
          </mxGeometry>
        </mxCell>
        <mxCell id="hqpWYG__Yn4aEwta1cD7-40" value="is to be excluded" style="rhombus;whiteSpace=wrap;html=1;rounded=1;arcSize=14;strokeWidth=2;" vertex="1" parent="1">
          <mxGeometry x="1920" y="180" width="90" height="80" as="geometry" />
        </mxCell>
        <mxCell id="hqpWYG__Yn4aEwta1cD7-47" style="edgeStyle=orthogonalEdgeStyle;rounded=0;orthogonalLoop=1;jettySize=auto;html=1;entryX=0.658;entryY=1;entryDx=0;entryDy=0;entryPerimeter=0;" edge="1" parent="1" source="hqpWYG__Yn4aEwta1cD7-41" target="hqpWYG__Yn4aEwta1cD7-46">
          <mxGeometry relative="1" as="geometry">
            <mxPoint x="2135" y="680" as="targetPoint" />
            <Array as="points">
              <mxPoint x="2140" y="540" />
              <mxPoint x="1729" y="540" />
            </Array>
          </mxGeometry>
        </mxCell>
        <mxCell id="hqpWYG__Yn4aEwta1cD7-41" value="log alert unknown environment" style="whiteSpace=wrap;html=1;rounded=1;arcSize=14;strokeWidth=2;" vertex="1" parent="1">
          <mxGeometry x="2075" y="190" width="120" height="60" as="geometry" />
        </mxCell>
        <mxCell id="hqpWYG__Yn4aEwta1cD7-46" value="process next deployment" style="ellipse;whiteSpace=wrap;html=1;" vertex="1" parent="1">
          <mxGeometry x="1650" y="440" width="120" height="80" as="geometry" />
        </mxCell>
        <mxCell id="hqpWYG__Yn4aEwta1cD7-48" style="edgeStyle=orthogonalEdgeStyle;rounded=0;orthogonalLoop=1;jettySize=auto;html=1;exitX=0.5;exitY=0;exitDx=0;exitDy=0;entryX=0.642;entryY=0.05;entryDx=0;entryDy=0;entryPerimeter=0;" edge="1" parent="1" source="hqpWYG__Yn4aEwta1cD7-1" target="hqpWYG__Yn4aEwta1cD7-1">
          <mxGeometry relative="1" as="geometry">
            <Array as="points">
              <mxPoint x="1727" y="50" />
            </Array>
          </mxGeometry>
        </mxCell>
      </root>
    </mxGraphModel>
  </diagram>
</mxfile>
